<?xml version="1.0" standalone="no"?><!DOCTYPE svg PUBLIC "-//W3C//DTD SVG 1.1//EN" "http://www.w3.org/Graphics/SVG/1.1/DTD/svg11.dtd"><svg t="1530099274031" class="icon" style="" viewBox="0 0 1024 1024" version="1.1" xmlns="http://www.w3.org/2000/svg" p-id="5022" xmlns:xlink="http://www.w3.org/1999/xlink" width="200" height="200"><defs><style type="text/css"></style></defs><path d="M410.54 73q-74.44 370.3 0 772.16C265.94 733 195.5 690.29 76.41 616Q206.48 222.92 410.54 73zM145.6 534.56l180.8 120.06q27.16-131.81-48-176.52t-132.8 56.46zM501.16 678.59l-0.74-11.34c-12.85-197.47 15.46-304.63 86.58-327.6 32.19-10.39 68.66-3 105.48 21.45 62.26 41.3 116.89 126.31 120.62 169.16l0.47 5.38-5.16 1.59c-111.95 34.67-212.1 80.16-297.69 135.21z m115.58-330.23a82.92 82.92 0 0 0-25.65 4c-62.25 20.12-88.48 121.94-78 302.7C596.14 603 692.24 559.65 799 526.14c-7-37.85-54.77-114.64-113.94-153.9-23.97-15.89-46.85-23.88-68.32-23.88z" fill="#ffffff" p-id="5023"></path><path d="M438.71 832l-1.6-9.22a2127 2127 0 0 1 0-729.9l1.38-7.91 7.51 2.76c245.28 90.43 414.41 260.63 502.71 505.87L951 600l-6.39 2.22C749.18 670 665.45 707.86 446.91 827.49z m10.22-728.9a2113.24 2113.24 0 0 0-0.22 708.16C659.61 696 744.5 657.62 933.8 591.78 847.2 356.35 684.14 192 448.93 103.1z" fill="#ffffff" p-id="5024"></path><path d="M667.63 585c-24.77-36.19-50.37-115.12-76.07-234.58l6.53-1.42c25.52 118.6 50.77 196.72 75.05 232.19z" fill="#ffffff" p-id="5025"></path></svg>