<?xml version="1.0" standalone="no"?><!DOCTYPE svg PUBLIC "-//W3C//DTD SVG 1.1//EN" "http://www.w3.org/Graphics/SVG/1.1/DTD/svg11.dtd"><svg t="1530099113513" class="icon" style="" viewBox="0 0 1024 1024" version="1.1" xmlns="http://www.w3.org/2000/svg" p-id="2326" xmlns:xlink="http://www.w3.org/1999/xlink" width="200" height="200"><defs><style type="text/css"></style></defs><path d="M85.333333 768c94.72-42.666667 189.44-85.333333 284.586667-85.333333 94.72 0 189.44 85.333333 284.16 85.333333 95.146667 0 189.866667-85.333333 284.586667-85.333333v128c-94.72 0-189.44 85.333333-284.586667 85.333333-94.72 0-189.44-85.333333-284.16-85.333333-95.146667 0-189.866667 42.666667-284.586667 85.333333v-128m284.586667-213.333333c-33.28 0-66.133333 5.12-98.986667 13.653333l209.92-146.773333-44.373333-52.906667c-5.973333-7.253333-9.813333-17.066667-9.813333-27.306667 0-14.506667 7.253333-27.733333 18.773333-35.413333l244.053333-170.666667 49.066667 69.546667-206.506667 144.64 223.146667 265.813333c-33.706667 14.08-67.413333 24.746667-101.12 24.746667-94.72 0-189.44-85.333333-284.16-85.333333M768 298.666667a85.333333 85.333333 0 0 1 85.333333 85.333333 85.333333 85.333333 0 0 1-85.333333 85.333333 85.333333 85.333333 0 0 1-85.333333-85.333333 85.333333 85.333333 0 0 1 85.333333-85.333333z" fill="#ffffff" p-id="2327"></path></svg>