<?xml version="1.0" standalone="no"?><!DOCTYPE svg PUBLIC "-//W3C//DTD SVG 1.1//EN" "http://www.w3.org/Graphics/SVG/1.1/DTD/svg11.dtd"><svg t="1530099201409" class="icon" style="" viewBox="0 0 1024 1024" version="1.1" xmlns="http://www.w3.org/2000/svg" p-id="3933" xmlns:xlink="http://www.w3.org/1999/xlink" width="200" height="200"><defs><style type="text/css"></style></defs><path d="M834.37037 502.518519h-37.925926c0-162.133333-129.896296-293.925926-289.185185-293.925926s-289.185185 131.792593-289.185185 293.925926h-37.925926c0-182.992593 146.962963-331.851852 327.111111-331.851852s327.111111 148.859259 327.111111 331.851852z" fill="#ffffff" p-id="3934"></path><path d="M568.888889 255.051852c-2.844444 0-6.637037 0-9.481482-0.948148-36.977778-9.481481-76.8-9.481481-113.777777 0-19.911111 4.740741-40.77037-7.585185-46.45926-27.496297-4.740741-19.911111 7.585185-40.77037 27.496297-46.459259 49.303704-12.325926 102.4-12.325926 151.703703 0 19.911111 4.740741 32.237037 25.6 27.496297 46.459259-4.740741 17.066667-19.911111 28.444444-36.977778 28.444445z" fill="#ffffff" p-id="3935"></path><path d="M213.333333 474.074074h65.422223c8.533333 0 11.377778 0.948148 14.222222 2.844445 2.844444 1.896296 5.688889 3.792593 7.585185 7.585185 1.896296 2.844444 2.844444 5.688889 2.844444 14.222222v255.051852c0 8.533333-0.948148 11.377778-2.844444 14.222222-1.896296 2.844444-3.792593 5.688889-7.585185 7.585185s-5.688889 2.844444-14.222222 2.844445h-65.422223c-49.303704 0-90.074074-40.77037-90.074074-90.074074v-123.25926c0-50.251852 40.77037-91.022222 90.074074-91.022222zM801.185185 474.074074h-65.422222c-8.533333 0-11.377778 0.948148-14.222222 2.844445-2.844444 1.896296-5.688889 3.792593-7.585185 7.585185-1.896296 2.844444-2.844444 5.688889-2.844445 14.222222v255.051852c0 8.533333 0.948148 11.377778 2.844445 14.222222 1.896296 2.844444 3.792593 5.688889 7.585185 7.585185s5.688889 2.844444 14.222222 2.844445h65.422222c49.303704 0 90.074074-40.77037 90.074074-90.074074v-123.25926c0-50.251852-40.77037-91.022222-90.074074-91.022222z" fill="#ffffff" p-id="3936"></path><path d="M180.148148 474.074074h37.925926v303.407407h-37.925926zM796.444444 474.074074h37.925926v303.407407h-37.925926z" fill="#ffffff" p-id="3937"></path></svg>